<svg xmlns="http://www.w3.org/2000/svg" width="140" height="135"><path fill-rule="evenodd" opacity=".4" fill="#d6d6d6" d="M138.196 18.791a1.786 1.786 0 0 1-1.257.521c-.467 0-.926-.189-1.256-.521a1.788 1.788 0 0 1-.521-1.256c0-.468.19-.926.521-1.257.33-.33.789-.52 1.256-.52.467 0 .926.189 1.257.52.332.331.52.789.52 1.257 0 .467-.188.926-.52 1.256zm-20.978 20.982c-.347.347-.802.52-1.257.52a1.778 1.778 0 0 1-1.256-3.034l16.313-16.314a1.777 1.777 0 1 1 2.513 2.513l-16.313 16.315zm-3.093-9.863a5.336 5.336 0 0 1-5.331-5.331 5.337 5.337 0 0 1 5.331-5.332 5.337 5.337 0 0 1 5.332 5.332 5.337 5.337 0 0 1-5.332 5.331zm0-7.109a1.78 1.78 0 0 0-1.777 1.778 1.78 1.78 0 0 0 1.777 1.777 1.78 1.78 0 0 0 1.777-1.777 1.78 1.78 0 0 0-1.777-1.778zM76.214 134.75a1.778 1.778 0 0 1-1.777-1.778v-6.794a1.777 1.777 0 0 1 3.554 0v6.794c0 .981-.795 1.778-1.777 1.778zm0-116.82a1.778 1.778 0 0 1-1.777-1.777V2.527a1.778 1.778 0 1 1 3.554 0v13.626c0 .981-.795 1.777-1.777 1.777zm-16.192-6.523c-.467 0-.926-.188-1.256-.52a1.79 1.79 0 0 1-.521-1.258c0-.467.19-.926.521-1.256.33-.33.789-.52 1.256-.52.467 0 .926.19 1.256.52.331.332.521.789.521 1.256 0 .47-.19.926-.521 1.258-.33.331-.788.52-1.256.52zM47.054 117.699c.331.331.521.787.521 1.256 0 .468-.19.925-.521 1.257-.33.331-.789.521-1.256.521-.467 0-.926-.19-1.257-.521a1.795 1.795 0 0 1-.52-1.257c0-.468.19-.925.52-1.256a1.79 1.79 0 0 1 1.257-.521c.467 0 .926.19 1.256.521zm-9.808-89.286c-.455 0-.91-.174-1.257-.52L25.948 17.851a1.778 1.778 0 0 1 2.514-2.514l10.041 10.042a1.777 1.777 0 0 1-1.257 3.034zM23.903 41.568h-1.219a1.778 1.778 0 0 1 0-3.555h1.219a1.777 1.777 0 0 1 0 3.555zm3.702-3.703a1.778 1.778 0 0 1-1.777-1.777v-1.219a1.778 1.778 0 0 1 3.554 0v1.219c0 .981-.795 1.777-1.777 1.777zm1.777 6.847a1.777 1.777 0 1 1-3.554 0v-1.219a1.778 1.778 0 1 1 3.554 0v1.219zm3.144-3.144h-1.219a1.778 1.778 0 0 1 0-3.555h1.219a1.777 1.777 0 0 1 0 3.555zM2.494 66.473h10.04a1.778 1.778 0 1 1 0 3.554H2.494a1.777 1.777 0 1 1 0-3.554zm29.688 42.475a1.778 1.778 0 0 1 2.513 2.514L20.93 125.229c-.347.347-.802.52-1.257.52a1.778 1.778 0 0 1-1.256-3.034l13.765-13.767zm77.944 8.23c.467 0 .926.19 1.256.521.331.331.521.789.521 1.256 0 .468-.19.925-.521 1.257-.33.331-.789.521-1.256.521-.467 0-.926-.19-1.258-.521a1.79 1.79 0 0 1-.519-1.257c0-.467.188-.925.519-1.256a1.792 1.792 0 0 1 1.258-.521zm10.745-7.782l8.872 8.873a1.778 1.778 0 0 1-2.513 2.514l-8.873-8.873a1.778 1.778 0 0 1 2.514-2.514zm7.14-8.047c.982 0 1.777.796 1.777 1.777v1.219a1.777 1.777 0 1 1-3.554 0v-1.219c0-.981.796-1.777 1.777-1.777zm-1.777-6.846a1.778 1.778 0 1 1 3.554 0v1.218a1.777 1.777 0 1 1-3.554 0v-1.218zm-3.144 3.144h1.219a1.776 1.776 0 1 1 0 3.554h-1.219a1.778 1.778 0 0 1 0-3.554zm7.524-51.668a1.797 1.797 0 0 1-.52-1.257c0-.469.19-.926.52-1.256a1.78 1.78 0 0 1 3.034 1.256c0 .468-.19.924-.521 1.257-.33.33-.789.521-1.256.521-.468 0-.926-.191-1.257-.521zm9.093 22.272c0 .981-.796 1.776-1.777 1.776h-10.137a1.777 1.777 0 1 1 0-3.554h10.137c.981 0 1.777.796 1.777 1.778zm-7.994 29.396h1.219a1.776 1.776 0 1 1 0 3.554h-1.219a1.778 1.778 0 0 1 0-3.554z"/></svg>