<svg xmlns="http://www.w3.org/2000/svg" width="22" height="17"><defs><linearGradient id="PSgrad_0" x1="95.63%" x2="0%" y1="0%" y2="29.237%"><stop offset="0%" stop-color="#B5CDFF"/><stop offset="100%" stop-color="#B5CDFF" stop-opacity="0"/></linearGradient></defs><path fill-rule="evenodd" fill="#FAFAFA" d="M18.155-.001H2.866C1.283-.001 0 1.267 0 2.832v11.334c0 1.564 1.283 2.832 2.866 2.832h15.289c1.583 0 2.866-1.268 2.866-2.832V2.832c0-1.565-1.283-2.833-2.866-2.833zm0 1.888c.11 0 .216.019.315.053l-7.959 6.294-7.96-6.294a.969.969 0 0 1 .315-.053h15.289zm0 13.223H2.866a.95.95 0 0 1-.955-.944V3.853l8.003 6.328a.964.964 0 0 0 1.193 0l8.003-6.328v10.313a.95.95 0 0 1-.955.944z"/><path fill="url(#PSgrad_0)" d="M18.155-.001H2.866C1.283-.001 0 1.267 0 2.832v11.334c0 1.564 1.283 2.832 2.866 2.832h15.289c1.583 0 2.866-1.268 2.866-2.832V2.832c0-1.565-1.283-2.833-2.866-2.833zm0 1.888c.11 0 .216.019.315.053l-7.959 6.294-7.96-6.294a.969.969 0 0 1 .315-.053h15.289zm0 13.223H2.866a.95.95 0 0 1-.955-.944V3.853l8.003 6.328a.964.964 0 0 0 1.193 0l8.003-6.328v10.313a.95.95 0 0 1-.955.944z"/></svg>