<svg xmlns="http://www.w3.org/2000/svg" width="80" height="104"><path fill-rule="evenodd" fill="#F0F0F0" d="M79.559 70.198c-3.188-.226-5.713-2.87-5.713-6.089V39.686C73.846 21.17 58.663 6.105 40 6.105c-18.663 0-33.846 15.065-33.846 33.581 0 3.367-2.761 6.106-6.154 6.106v-6.106C0 17.803 17.944 0 40 0s40 17.803 40 39.686v24.627c0 1.999-.152 3.964-.441 5.885zM24.615 39.686c0-8.416 6.902-15.264 15.385-15.264s15.385 6.848 15.384 15.264c0 14.69-5.758 28.492-16.213 38.866-7.417 7.358-16.574 12.369-26.555 14.661a40.14 40.14 0 0 1-4.759-5.306c23.424-3.744 41.373-23.94 41.373-48.221 0-5.05-4.141-9.158-9.23-9.158-5.09 0-9.231 4.108-9.231 9.158 0 8.161-3.199 15.829-9.007 21.592-5.705 5.659-13.261 8.82-21.32 8.931A39.541 39.541 0 0 1 0 64.313v-.204c13.573 0 24.615-10.956 24.615-24.423zm12.308 0c0-1.686 1.378-3.053 3.077-3.053s3.077 1.367 3.077 3.053c0 11.425-4.478 22.16-12.61 30.228-7.109 7.054-16.273 11.337-26.159 12.302a39.265 39.265 0 0 1-2.45-5.942c19.5-.964 35.065-17.006 35.065-36.588zm9.529 40.255l2.049 3.31a36.867 36.867 0 0 0 5.386 6.767 36.978 36.978 0 0 0 9.206 6.681 39.977 39.977 0 0 1-6.129 3.548 43.285 43.285 0 0 1-7.429-5.912 43.153 43.153 0 0 1-4.163-4.786 67.466 67.466 0 0 1-19.055 12.058 40.04 40.04 0 0 1-7.62-3.719c9.269-2.916 17.759-8.007 24.826-15.019l2.929-2.928zm-1.268 18.712a49.864 49.864 0 0 0 4.713 4.116 40.475 40.475 0 0 1-14.053 1.017 73.392 73.392 0 0 0 8.783-5.695c.184.189.37.376.557.562zm5.708-24.598a60.257 60.257 0 0 0 4.583-7.86c.854 9.966 7.764 18.244 17.054 21.186a40.021 40.021 0 0 1-4.251 4.974 30.687 30.687 0 0 1-10.04-6.655c-3.361-3.335-5.846-7.308-7.346-11.645zm10.647-9.946V39.686c0-11.783-9.662-21.369-21.539-21.369-11.876 0-21.538 9.586-21.538 21.369 0 10.1-8.282 18.317-18.462 18.317v-6.105c6.787 0 12.308-5.478 12.308-12.212 0-15.15 12.423-27.475 27.692-27.475s27.692 12.325 27.692 27.475v24.423c0 6.117 4.557 11.196 10.479 12.076a39.302 39.302 0 0 1-2.347 5.768c-8.175-1.883-14.285-9.168-14.285-17.844z"/></svg>