<svg version="1.1" id="loginizator-Layer_1" xmlns="http://www.w3.org/2000/svg" x="0" y="0" viewBox="0 0 188 82" xml:space="preserve"><style>.st02{fill:#fff}.st12{fill:#2c2d33}.st22{fill:#4f88ff}</style><path id="loginizator-BEZPEKA.CLUB_1_" class="st12" d="M14.2 73.9c.5.7.8 1.5.8 2.5 0 1.4-.5 2.5-1.6 3.3s-2.7 1.1-4.8 1.1H.3V64.7h7.9c2 0 3.5.4 4.5 1.1s1.6 1.8 1.6 3.1c0 .8-.2 1.5-.6 2.1s-.9 1.1-1.6 1.4c.9.3 1.6.8 2.1 1.5zM4 67.5v3.8h3.7c.9 0 1.6-.2 2.1-.5s.7-.8.7-1.4-.2-1.1-.7-1.4-1.2-.5-2.1-.5H4zm6.5 10c.5-.3.7-.8.7-1.5 0-1.3-1-2-3-2H3.9v4h4.3c1.1 0 1.8-.2 2.3-.5zm19.1.3v3H17.1V64.7h12.2v3h-8.5v3.5h7.5v2.9h-7.5v3.7h8.8zm17.3-.1v3H32.8v-2.3l8.8-10.6H33v-3h13.5v2.4l-8.8 10.6 9.2-.1zm13.4-12.3c1.1.5 1.9 1.1 2.4 2s.9 1.9.9 3.1-.3 2.2-.9 3.1c-.6.9-1.4 1.6-2.4 2-1.1.5-2.3.7-3.7.7h-3.2v4.4h-3.7v-16h7c1.3 0 2.5.2 3.6.7zm-1.4 7.2c.6-.5.9-1.2.9-2.1s-.3-1.6-.9-2.1-1.4-.7-2.6-.7h-3v5.6h3c1.2 0 2-.2 2.6-.7zM78 77.8v3H65.5V64.7h12.2v3h-8.5v3.5h7.5v2.9h-7.5v3.7H78zm8.1-3.4l-2.2 2.3v4.1h-3.7V64.7h3.7v7.5l7.1-7.5h4.1l-6.7 7.2 7.1 8.9h-4.3l-5.1-6.4zm23.4 2.9H102l-1.4 3.4h-3.8l7.2-16.1h3.7l7.2 16.1H111l-1.5-3.4zm-1.2-2.8l-2.6-6.2-2.6 6.2h5.2zm68.4-7v3.8h3.7c.9 0 1.6-.2 2.1-.5s.7-.8.7-1.4-.2-1.1-.7-1.4-1.2-.5-2.1-.5h-3.7zm6.5 10c.5-.3.7-.8.7-1.5 0-1.3-1-2-3-2h-4.3v4h4.3c1.1 0 1.8-.2 2.3-.5z"/><g id="loginizator-Page-1_2_"><path class="st22 glow" d="M114 27.9V13.4c0-.7-.4-1.3-1.1-1.6L94.6 5.1c-.4-.1-.8-.1-1.1 0l-18.3 6.7c-.7.2-1.1.9-1.1 1.6v14.5C74 39.8 73.9 48.4 93.6 55c.2.1.3.1.5.1s.4 0 .5-.1c19.6-6.6 19.5-15.2 19.4-27.1"/><path id="loginizator-Fill-1_1_" class="st22 hov-white" d="M114 27.9V13.4c0-.7-.4-1.3-1.1-1.6L94.6 5.1c-.4-.1-.8-.1-1.1 0l-18.3 6.7c-.7.2-1.1.9-1.1 1.6v14.5c-.1 11.9-.2 20.4 19.4 27 .2.1.3.1.5.1s.4 0 .5-.1c19.7-6.5 19.6-15.1 19.5-27"/><path id="loginizator-Fill-4_1_" class="st02 hov-blue" d="M98.7 33.6c-.4.8-.9 1.7-1.4 2.4.5 1.3 1.2 2.6 2.2 3.6.9.9 1.9 1.6 3 2.1.5-.5.9-1 1.3-1.5-2.8-.9-4.8-3.5-5.1-6.6"/><path id="loginizator-Fill-6_1_" class="st02 hov-blue" d="M102.4 32.9v-7.6c0-4.7-3.7-8.5-8.3-8.5s-8.3 3.8-8.3 8.5c0 2.1-1.7 3.8-3.7 3.8V31c3.1 0 5.5-2.5 5.5-5.7 0-3.7 2.9-6.6 6.5-6.6s6.5 3 6.5 6.6v7.6c0 2.7 1.8 5 4.3 5.5.3-.6.5-1.2.7-1.8-1.9-.2-3.2-1.8-3.2-3.7"/><path id="loginizator-Fill-8_1_" class="st02 hov-blue" d="M98.2 41c-.6-.6-1.2-1.3-1.6-2.1l-.6-1-.9.9c-2.1 2.2-4.7 3.8-7.4 4.7.7.5 1.5.9 2.3 1.2 2.1-.9 4-2.2 5.7-3.7l1.2 1.5c.7.7 1.4 1.3 2.2 1.8.6-.3 1.3-.7 1.8-1.1-.9-.7-1.9-1.4-2.7-2.2"/><path id="loginizator-Fill-10_1_" class="st02 hov-blue" d="M94.1 13.1c-6.6 0-12 5.5-12 12.3v1.9c1 0 1.8-.9 1.8-1.9 0-5.7 4.6-10.4 10.2-10.4s10.2 4.7 10.2 10.4V33c0 1 .8 1.8 1.7 1.9.1-.6.1-1.2.1-1.8v-7.6c0-6.9-5.4-12.4-12-12.4"/><path id="loginizator-Fill-12_1_" class="st02 hov-blue" d="M94.1 20.6c-2.5 0-4.6 2.1-4.6 4.7 0 4.2-3.3 7.6-7.4 7.6v.1c0 .6 0 1.2.1 1.8 2.4 0 4.7-1 6.4-2.8 1.7-1.8 2.7-4.2 2.7-6.7 0-1.6 1.2-2.8 2.8-2.8s2.8 1.3 2.8 2.8c0 7.5-5.4 13.8-12.4 15 .4.6.9 1.1 1.4 1.6 3-.7 5.7-2.3 8-4.5 3.1-3.2 4.9-7.5 4.9-12.1-.1-2.5-2.2-4.7-4.7-4.7"/><path id="loginizator-Fill-14_1_" class="st02 hov-blue" d="M95.6 43.7l-.2-.2c-.8.7-1.7 1.2-2.6 1.8.4 0 .8.1 1.2.1 1 0 2-.1 3-.4-.5-.5-.9-.9-1.4-1.3"/><path id="loginizator-Fill-16_1_444" class="st02 hov-blue" d="M94.1 24.4c-.5 0-.9.4-.9.9 0 6.1-4.7 11-10.5 11.3.2.6.4 1.3.7 1.8 3-.3 5.7-1.6 7.8-3.8 2.4-2.5 3.8-5.8 3.8-9.4 0-.4-.4-.8-.9-.8"/><path class="st12 hov-blue" d="M118 80.3c-.4-.4-.6-1-.6-1.6 0-.7.2-1.2.6-1.6s1-.6 1.6-.6 1.2.2 1.6.6.6.9.6 1.6c0 .6-.2 1.2-.6 1.6s-1 .6-1.6.6c-.6.1-1.1-.2-1.6-.6zm9.6-.3c-1.3-.7-2.4-1.7-3.1-3s-1.1-2.7-1.1-4.3c0-1.6.4-3 1.1-4.3.8-1.3 1.8-2.3 3.1-3s2.8-1.1 4.5-1.1c1.4 0 2.7.2 3.8.7s2.1 1.2 2.8 2.1l-2.4 2.2c-1.1-1.3-2.4-1.9-4-1.9-1 0-1.9.2-2.7.7-.8.4-1.4 1-1.8 1.8-.4.8-.7 1.7-.7 2.7s.2 1.9.7 2.7c.4.8 1 1.4 1.8 1.8s1.7.7 2.7.7c1.6 0 3-.6 4-1.9l2.4 2.2c-.8.9-1.7 1.6-2.9 2.1s-2.4.7-3.8.7c-1.6.1-3-.2-4.4-.9zm13.9-15.3h3.7v13.1h8.1v3h-11.8zm15.8 14.4c-1.3-1.3-1.9-3.1-1.9-5.5v-9h3.7v8.9c0 2.9 1.2 4.3 3.6 4.3 1.2 0 2.1-.3 2.7-1 .6-.7.9-1.8.9-3.3v-8.9h3.7v9c0 2.4-.6 4.2-1.9 5.5-1.3 1.3-3.1 1.9-5.4 1.9-2.3 0-4.1-.6-5.4-1.9zm29.6-5.2c.5.7.8 1.5.8 2.5 0 1.4-.5 2.5-1.6 3.3s-2.7 1.1-4.8 1.1H173V64.7h7.9c2 0 3.5.4 4.5 1.1s1.6 1.8 1.6 3.1c0 .8-.2 1.5-.6 2.1s-.9 1.1-1.6 1.4c.9.3 1.6.8 2.1 1.5z"/><path class="st02" d="M176.7 67.5v3.8h3.7c.9 0 1.6-.2 2.1-.5s.7-.8.7-1.4-.2-1.1-.7-1.4-1.2-.5-2.1-.5h-3.7zm6.5 10c.5-.3.7-.8.7-1.5 0-1.3-1-2-3-2h-4.3v4h4.3c1.1 0 1.8-.2 2.3-.5z"/></g></svg>