<svg xmlns="http://www.w3.org/2000/svg" width="24" height="22"><defs><linearGradient id="PSgrad_0" x1="95.63%" x2="0%" y1="0%" y2="29.237%"><stop offset="0%" stop-color="#B5CDFF"/><stop offset="100%" stop-color="#B5CDFF" stop-opacity="0"/></linearGradient></defs><path fill-rule="evenodd" fill="#FAFAFA" d="M15.51 12.734a5.714 5.714 0 0 0 1.758-4.126v-2.87c0-3.169-2.577-5.74-5.756-5.74-3.179 0-5.756 2.571-5.756 5.74v2.87c0 1.619.674 3.081 1.757 4.126C3.127 13.414 0 15.181 0 17.239v1.89a2.874 2.874 0 0 0 2.878 2.87h17.268a2.874 2.874 0 0 0 2.878-2.87v-1.883c0-2.058-3.127-3.83-7.514-4.512zM7.674 8.608v-2.87a3.833 3.833 0 0 1 3.838-3.827 3.832 3.832 0 0 1 3.837 3.827v2.87a3.831 3.831 0 0 1-3.837 3.825 3.832 3.832 0 0 1-3.838-3.825zm13.431 10.521c0 .527-.43.956-.959.956H2.878a.96.96 0 0 1-.96-.956v-1.89c0-.223.553-.943 2.196-1.63 1.919-.802 4.616-1.263 7.398-1.263 2.78 0 5.476.462 7.397 1.266 1.643.689 2.196 1.41 2.196 1.634v1.883z"/><path fill="url(#PSgrad_0)" d="M15.51 12.734a5.714 5.714 0 0 0 1.758-4.126v-2.87c0-3.169-2.577-5.74-5.756-5.74-3.179 0-5.756 2.571-5.756 5.74v2.87c0 1.619.674 3.081 1.757 4.126C3.127 13.414 0 15.181 0 17.239v1.89a2.874 2.874 0 0 0 2.878 2.87h17.268a2.874 2.874 0 0 0 2.878-2.87v-1.883c0-2.058-3.127-3.83-7.514-4.512zM7.674 8.608v-2.87a3.833 3.833 0 0 1 3.838-3.827 3.832 3.832 0 0 1 3.837 3.827v2.87a3.831 3.831 0 0 1-3.837 3.825 3.832 3.832 0 0 1-3.838-3.825zm13.431 10.521c0 .527-.43.956-.959.956H2.878a.96.96 0 0 1-.96-.956v-1.89c0-.223.553-.943 2.196-1.63 1.919-.802 4.616-1.263 7.398-1.263 2.78 0 5.476.462 7.397 1.266 1.643.689 2.196 1.41 2.196 1.634v1.883z"/></svg>