<svg xmlns="http://www.w3.org/2000/svg" width="15" height="15"><path fill-rule="evenodd" fill="#4F88FF" d="M14.115 7.697a.866.866 0 0 1-.878-.852 5.015 5.015 0 0 0-1.551-3.631 5.35 5.35 0 0 0-3.745-1.505H7.94a.865.865 0 0 1-.878-.851c0-.471.393-.852.878-.852h.001c1.884 0 3.655.712 4.987 2.003 1.332 1.292 2.066 3.01 2.066 4.837 0 .47-.394.851-.879.851zm-3.965-.852c0-1.181-.992-2.142-2.21-2.142a.865.865 0 0 1-.878-.851c0-.471.393-.852.878-.852 2.187.001 3.966 1.725 3.966 3.845 0 .47-.393.852-.878.852a.866.866 0 0 1-.878-.852zm-4.442 2.96c1.355 1.222 2.464 1.625 2.861 1.795.295.126.651.104.873-.118.281-.285.632-.76.988-1.228.254-.336.566-.372.891-.245.331.118 2.078 1.002 2.437 1.184.359.184.596.273.681.424.084.151.07.85-.243 1.666-.314.815-1.509 1.474-2.456 1.655-.647.122-1.492.213-4.305-.986-3.599-1.533-5.864-5.172-6.042-5.408-.17-.237-1.429-1.931-1.395-3.659.034-1.728.949-2.552 1.319-2.907.304-.291.798-.417 1.27-.408.153.002.29.012.414.021.362.022.544.046.772.609.284.705.975 2.446 1.058 2.626.085.178.168.421.04.652-.12.238-.224.344-.41.545-.186.201-.362.355-.548.571-.171.188-.363.389-.16.747.203.35.906 1.517 1.955 2.464z"/></svg>