<svg xmlns="http://www.w3.org/2000/svg" width="18" height="27"><path fill-rule="evenodd" fill="#FFF" d="M12.5 26.999h-7c-3.032 0-5.5-2.244-5.5-5.001V4.999C0 2.243 2.468-.002 5.5-.002h7c3.031 0 5.5 2.245 5.5 5.001v16.999c0 2.757-2.469 5.001-5.5 5.001zm3.3-22c0-1.654-1.481-3-3.3-3h-7c-1.82 0-3.3 1.346-3.3 3v12h13.6v-12zm0 13.999H2.2v3c0 1.654 1.48 3.001 3.3 3.001h7c1.819 0 3.3-1.347 3.3-3.001v-3zM9 22.999c-1.215 0-1.1.104-1.1-1.001 0-1.104-.115-.999 1.1-.999 1.214 0 1.1-.105 1.1.999 0 1.105.114 1.001-1.1 1.001zm2.2-17.001H6.8V3.999h4.4v1.999z"/></svg>