<svg xmlns="http://www.w3.org/2000/svg" width="19" height="25"><defs><linearGradient id="PSgrad_0" x1="95.63%" x2="0%" y1="0%" y2="29.237%"><stop offset="0%" stop-color="#B5CDFF"/><stop offset="100%" stop-color="#B5CDFF" stop-opacity="0"/></linearGradient></defs><path fill-rule="evenodd" fill="#FAFAFA" d="M13.733 24.999H5.266C2.362 24.999 0 22.696 0 19.866V5.132C0 2.301 2.362-.002 5.266-.002h8.468C16.637-.002 19 2.301 19 5.132v14.734c0 2.83-2.363 5.133-5.267 5.133zm-2.12-22.673H7.386v1.273c0 .088.074.161.166.161h3.896a.164.164 0 0 0 .165-.161V2.326zm4.999 2.806c0-1.458-1.151-2.646-2.611-2.779v1.246c0 1.372-1.145 2.489-2.553 2.489H7.552c-1.408 0-2.554-1.117-2.554-2.489V2.353c-1.46.133-2.61 1.321-2.61 2.779v14.734c0 1.547 1.291 2.805 2.878 2.805h8.467c1.587 0 2.879-1.258 2.879-2.805V5.132zM7.6 16.256h3.8v2.504H7.6v-2.504z"/><path fill="url(#PSgrad_0)" d="M13.733 24.999H5.266C2.362 24.999 0 22.696 0 19.866V5.132C0 2.301 2.362-.002 5.266-.002h8.468C16.637-.002 19 2.301 19 5.132v14.734c0 2.83-2.363 5.133-5.267 5.133zm-2.12-22.673H7.386v1.273c0 .088.074.161.166.161h3.896a.164.164 0 0 0 .165-.161V2.326zm4.999 2.806c0-1.458-1.151-2.646-2.611-2.779v1.246c0 1.372-1.145 2.489-2.553 2.489H7.552c-1.408 0-2.554-1.117-2.554-2.489V2.353c-1.46.133-2.61 1.321-2.61 2.779v14.734c0 1.547 1.291 2.805 2.878 2.805h8.467c1.587 0 2.879-1.258 2.879-2.805V5.132zM7.6 16.256h3.8v2.504H7.6v-2.504z"/></svg>