<svg 
 xmlns="http://www.w3.org/2000/svg"
 xmlns:xlink="http://www.w3.org/1999/xlink"
 width="140px" height="135px">
<path fill-rule="evenodd"  opacity="0.4" fill="#d6d6d6"
 d="M138.196,18.791 C137.865,19.123 137.407,19.312 136.939,19.312 C136.472,19.312 136.013,19.123 135.683,18.791 C135.352,18.461 135.162,18.002 135.162,17.535 C135.162,17.067 135.352,16.609 135.683,16.278 C136.013,15.948 136.472,15.758 136.939,15.758 C137.406,15.758 137.865,15.947 138.196,16.278 C138.528,16.609 138.716,17.067 138.716,17.535 C138.716,18.002 138.528,18.461 138.196,18.791 ZM117.218,39.773 C116.871,40.120 116.416,40.293 115.961,40.293 C115.507,40.293 115.052,40.120 114.705,39.773 C114.011,39.079 114.011,37.953 114.705,37.259 L131.018,20.945 C131.712,20.250 132.837,20.250 133.531,20.945 C134.225,21.638 134.225,22.764 133.531,23.458 L117.218,39.773 ZM114.125,29.910 C111.185,29.910 108.794,27.519 108.794,24.579 C108.794,21.638 111.185,19.247 114.125,19.247 C117.065,19.247 119.457,21.638 119.457,24.579 C119.457,27.519 117.065,29.910 114.125,29.910 ZM114.125,22.801 C113.145,22.801 112.348,23.599 112.348,24.579 C112.348,25.558 113.145,26.356 114.125,26.356 C115.105,26.356 115.902,25.558 115.902,24.579 C115.902,23.599 115.105,22.801 114.125,22.801 ZM76.214,134.750 C75.233,134.750 74.437,133.953 74.437,132.972 L74.437,126.178 C74.437,125.197 75.233,124.400 76.214,124.400 C77.196,124.400 77.991,125.196 77.991,126.178 L77.991,132.972 C77.991,133.953 77.196,134.750 76.214,134.750 ZM76.214,17.930 C75.233,17.930 74.437,17.134 74.437,16.153 L74.437,2.527 C74.437,1.545 75.233,0.749 76.214,0.749 C77.196,0.749 77.991,1.545 77.991,2.527 L77.991,16.153 C77.991,17.134 77.196,17.930 76.214,17.930 ZM60.022,11.407 C59.555,11.407 59.096,11.219 58.766,10.887 C58.435,10.555 58.245,10.099 58.245,9.629 C58.245,9.162 58.435,8.703 58.766,8.373 C59.096,8.043 59.555,7.853 60.022,7.853 C60.489,7.853 60.948,8.043 61.278,8.373 C61.609,8.705 61.799,9.162 61.799,9.629 C61.799,10.099 61.609,10.555 61.278,10.887 C60.948,11.218 60.490,11.407 60.022,11.407 ZM47.054,117.699 C47.385,118.030 47.575,118.486 47.575,118.955 C47.575,119.423 47.385,119.880 47.054,120.212 C46.724,120.543 46.265,120.733 45.798,120.733 C45.331,120.733 44.872,120.543 44.541,120.212 C44.211,119.880 44.021,119.423 44.021,118.955 C44.021,118.487 44.211,118.030 44.541,117.699 C44.872,117.368 45.330,117.178 45.798,117.178 C46.265,117.178 46.724,117.368 47.054,117.699 ZM37.246,28.413 C36.791,28.413 36.336,28.239 35.989,27.893 L25.948,17.851 C25.254,17.157 25.254,16.031 25.948,15.337 C26.642,14.643 27.768,14.643 28.462,15.337 L38.503,25.379 C39.197,26.073 39.197,27.199 38.502,27.893 C38.155,28.239 37.700,28.413 37.246,28.413 ZM23.903,41.568 L22.684,41.568 C21.703,41.568 20.907,40.772 20.907,39.791 C20.907,38.809 21.703,38.013 22.684,38.013 L23.903,38.013 C24.885,38.013 25.680,38.809 25.680,39.791 C25.680,40.772 24.885,41.568 23.903,41.568 ZM27.605,37.865 C26.624,37.865 25.828,37.069 25.828,36.088 L25.828,34.869 C25.828,33.888 26.624,33.092 27.605,33.092 C28.587,33.092 29.382,33.888 29.382,34.869 L29.382,36.088 C29.382,37.069 28.587,37.865 27.605,37.865 ZM29.382,44.712 C29.382,45.693 28.587,46.489 27.605,46.489 C26.624,46.489 25.828,45.693 25.828,44.712 L25.828,43.493 C25.828,42.511 26.624,41.715 27.605,41.715 C28.587,41.715 29.382,42.511 29.382,43.493 L29.382,44.712 ZM32.526,41.568 L31.307,41.568 C30.326,41.568 29.530,40.772 29.530,39.791 C29.530,38.809 30.326,38.013 31.307,38.013 L32.526,38.013 C33.508,38.013 34.303,38.809 34.303,39.791 C34.303,40.772 33.507,41.568 32.526,41.568 ZM2.494,66.473 L12.534,66.473 C13.516,66.473 14.312,67.269 14.312,68.251 C14.312,69.232 13.516,70.027 12.534,70.027 L2.494,70.027 C1.512,70.027 0.716,69.232 0.716,68.251 C0.716,67.269 1.512,66.473 2.494,66.473 ZM32.182,108.948 C32.876,108.255 34.001,108.255 34.695,108.948 C35.389,109.643 35.389,110.768 34.695,111.462 L20.930,125.229 C20.583,125.576 20.128,125.749 19.673,125.749 C19.219,125.749 18.764,125.576 18.417,125.229 C17.723,124.534 17.723,123.409 18.417,122.715 L32.182,108.948 ZM110.126,117.178 C110.593,117.178 111.052,117.368 111.382,117.699 C111.713,118.030 111.903,118.488 111.903,118.955 C111.903,119.423 111.713,119.880 111.382,120.212 C111.052,120.543 110.593,120.733 110.126,120.733 C109.659,120.733 109.200,120.543 108.868,120.212 C108.537,119.880 108.349,119.423 108.349,118.955 C108.349,118.488 108.537,118.030 108.868,117.699 C109.200,117.368 109.657,117.178 110.126,117.178 ZM120.871,109.396 L129.743,118.269 C130.437,118.963 130.437,120.089 129.743,120.783 C129.396,121.130 128.941,121.304 128.486,121.304 C128.032,121.304 127.577,121.130 127.230,120.783 L118.357,111.910 C117.663,111.215 117.663,110.090 118.357,109.396 C119.051,108.702 120.177,108.702 120.871,109.396 ZM128.011,101.349 C128.993,101.349 129.788,102.145 129.788,103.126 L129.788,104.345 C129.788,105.326 128.993,106.122 128.011,106.122 C127.030,106.122 126.234,105.326 126.234,104.345 L126.234,103.126 C126.234,102.145 127.030,101.349 128.011,101.349 ZM126.234,94.503 C126.234,93.521 127.030,92.725 128.011,92.725 C128.993,92.725 129.788,93.521 129.788,94.503 L129.788,95.721 C129.788,96.703 128.993,97.499 128.011,97.499 C127.030,97.499 126.234,96.703 126.234,95.721 L126.234,94.503 ZM123.090,97.647 L124.309,97.647 C125.291,97.647 126.086,98.442 126.086,99.424 C126.086,100.405 125.291,101.201 124.309,101.201 L123.090,101.201 C122.109,101.201 121.313,100.405 121.313,99.424 C121.313,98.442 122.109,97.647 123.090,97.647 ZM130.614,45.979 C130.284,45.646 130.094,45.190 130.094,44.722 C130.094,44.253 130.284,43.796 130.614,43.466 C130.945,43.133 131.403,42.945 131.871,42.945 C132.338,42.945 132.797,43.133 133.127,43.466 C133.458,43.796 133.648,44.253 133.648,44.722 C133.648,45.190 133.458,45.646 133.127,45.979 C132.797,46.309 132.338,46.500 131.871,46.500 C131.403,46.500 130.945,46.309 130.614,45.979 ZM139.707,68.251 C139.707,69.232 138.911,70.027 137.930,70.027 L127.793,70.027 C126.811,70.027 126.015,69.232 126.015,68.251 C126.015,67.269 126.811,66.473 127.793,66.473 L137.930,66.473 C138.911,66.473 139.707,67.269 139.707,68.251 ZM131.713,97.647 L132.932,97.647 C133.914,97.647 134.709,98.442 134.709,99.424 C134.709,100.405 133.913,101.201 132.932,101.201 L131.713,101.201 C130.732,101.201 129.936,100.405 129.936,99.424 C129.936,98.442 130.732,97.647 131.713,97.647 Z"/>
</svg>