<svg 
 xmlns="http://www.w3.org/2000/svg"
 xmlns:xlink="http://www.w3.org/1999/xlink"
 width="22px" height="17px">
<defs>
<linearGradient id="PSgrad_0" x1="95.63%" x2="0%" y1="0%" y2="29.237%">
  <stop offset="0%" stop-color="rgb(181,205,255)" stop-opacity="1" />
  <stop offset="100%" stop-color="rgb(181,205,255)" stop-opacity="0" />
</linearGradient>

</defs>
<path fill-rule="evenodd"  fill="rgb(250, 250, 250)"
 d="M18.155,-0.001 L2.866,-0.001 C1.283,-0.001 -0.000,1.267 -0.000,2.832 L-0.000,14.166 C-0.000,15.730 1.283,16.998 2.866,16.998 L18.155,16.998 C19.738,16.998 21.021,15.730 21.021,14.166 L21.021,2.832 C21.021,1.267 19.738,-0.001 18.155,-0.001 ZM18.155,1.887 C18.265,1.887 18.371,1.906 18.470,1.940 L10.511,8.234 L2.551,1.940 C2.650,1.906 2.756,1.887 2.866,1.887 L18.155,1.887 ZM18.155,15.110 L2.866,15.110 C2.339,15.110 1.911,14.687 1.911,14.166 L1.911,3.853 L9.914,10.181 C10.088,10.318 10.299,10.388 10.511,10.388 C10.722,10.388 10.933,10.318 11.107,10.181 L19.110,3.853 L19.110,14.166 C19.110,14.687 18.683,15.110 18.155,15.110 Z"/>
<path fill="url(#PSgrad_0)"
 d="M18.155,-0.001 L2.866,-0.001 C1.283,-0.001 -0.000,1.267 -0.000,2.832 L-0.000,14.166 C-0.000,15.730 1.283,16.998 2.866,16.998 L18.155,16.998 C19.738,16.998 21.021,15.730 21.021,14.166 L21.021,2.832 C21.021,1.267 19.738,-0.001 18.155,-0.001 ZM18.155,1.887 C18.265,1.887 18.371,1.906 18.470,1.940 L10.511,8.234 L2.551,1.940 C2.650,1.906 2.756,1.887 2.866,1.887 L18.155,1.887 ZM18.155,15.110 L2.866,15.110 C2.339,15.110 1.911,14.687 1.911,14.166 L1.911,3.853 L9.914,10.181 C10.088,10.318 10.299,10.388 10.511,10.388 C10.722,10.388 10.933,10.318 11.107,10.181 L19.110,3.853 L19.110,14.166 C19.110,14.687 18.683,15.110 18.155,15.110 Z"/>
</svg>