<svg 
 xmlns="http://www.w3.org/2000/svg"
 xmlns:xlink="http://www.w3.org/1999/xlink"
 width="80px" height="104px">
<path fill-rule="evenodd"  fill="rgb(240, 240, 240)"
 d="M79.559,70.198 C76.371,69.972 73.846,67.328 73.846,64.109 L73.846,39.686 C73.846,21.170 58.663,6.105 40.000,6.105 C21.337,6.105 6.154,21.170 6.154,39.686 C6.154,43.053 3.393,45.792 0.000,45.792 L0.000,39.686 C0.000,17.803 17.944,-0.000 40.000,-0.000 C62.056,-0.000 80.000,17.803 80.000,39.686 L80.000,64.313 C80.000,66.312 79.848,68.277 79.559,70.198 ZM24.615,39.686 C24.615,31.270 31.517,24.422 40.000,24.422 C48.483,24.422 55.385,31.270 55.384,39.686 C55.384,54.376 49.626,68.178 39.171,78.552 C31.754,85.910 22.597,90.921 12.616,93.213 C10.876,91.589 9.283,89.814 7.857,87.907 C31.281,84.163 49.230,63.967 49.230,39.686 C49.230,34.636 45.089,30.528 40.000,30.528 C34.910,30.528 30.769,34.636 30.769,39.686 C30.769,47.847 27.570,55.515 21.762,61.278 C16.057,66.937 8.501,70.098 0.442,70.209 C0.152,68.285 0.000,66.316 0.000,64.313 L0.000,64.109 C13.573,64.109 24.615,53.153 24.615,39.686 ZM36.923,39.686 C36.923,38.000 38.301,36.633 40.000,36.633 C41.699,36.633 43.077,38.000 43.077,39.686 C43.077,51.111 38.599,61.846 30.467,69.914 C23.358,76.968 14.194,81.251 4.308,82.216 C3.337,80.318 2.515,78.332 1.858,76.274 C21.358,75.310 36.923,59.268 36.923,39.686 ZM46.452,79.941 L48.501,83.251 C50.013,85.696 51.826,87.973 53.887,90.018 C56.633,92.742 59.737,94.982 63.093,96.699 C61.169,98.054 59.118,99.243 56.964,100.247 C54.306,98.574 51.815,96.597 49.535,94.335 C48.029,92.841 46.636,91.239 45.372,89.549 C39.676,94.661 33.241,98.712 26.317,101.607 C23.631,100.634 21.080,99.381 18.697,97.888 C27.966,94.972 36.456,89.881 43.523,82.869 L46.452,79.941 ZM45.184,98.653 C46.668,100.125 48.246,101.499 49.897,102.769 C46.731,103.571 43.415,104.000 40.000,104.000 C38.597,104.000 37.210,103.927 35.844,103.786 C38.900,102.101 41.833,100.200 44.627,98.091 C44.811,98.280 44.997,98.467 45.184,98.653 ZM50.892,74.055 C52.623,71.542 54.153,68.917 55.475,66.195 C56.329,76.161 63.239,84.439 72.529,87.381 C71.249,89.153 69.827,90.818 68.278,92.355 C64.566,90.841 61.159,88.599 58.238,85.700 C54.877,82.365 52.392,78.392 50.892,74.055 ZM61.539,64.109 L61.539,39.686 C61.539,27.903 51.877,18.317 40.000,18.317 C28.124,18.317 18.462,27.903 18.462,39.686 C18.462,49.786 10.180,58.003 0.000,58.003 L0.000,51.898 C6.787,51.898 12.308,46.420 12.308,39.686 C12.308,24.536 24.731,12.211 40.000,12.211 C55.269,12.211 67.692,24.536 67.692,39.686 L67.692,64.109 C67.692,70.226 72.249,75.305 78.171,76.185 C77.539,78.180 76.751,80.107 75.824,81.953 C67.649,80.070 61.539,72.785 61.539,64.109 Z"/>
</svg>