<svg version="1.1" id="loginizator-Layer_1" xmlns="http://www.w3.org/2000/svg" xmlns:xlink="http://www.w3.org/1999/xlink" x="0px" y="0px" viewBox="0 0 188 82" style="enable-background:new 0 0 188 82;" xml:space="preserve">
<style type="text/css">
	.st02 {
		fill: #FFFFFF;
	}

	.st12 {
		fill: #2C2D33;
	}

	.st22 {
		fill: #4F88FF;
	}
</style>
				<path id="loginizator-BEZPEKA.CLUB_1_" class="st12" d="M14.2,73.9c0.5,0.7,0.8,1.5,0.8,2.5c0,1.4-0.5,2.5-1.6,3.3s-2.7,1.1-4.8,1.1H0.3V64.7h7.9
	c2,0,3.5,0.4,4.5,1.1s1.6,1.8,1.6,3.1c0,0.8-0.2,1.5-0.6,2.1s-0.9,1.1-1.6,1.4C13,72.7,13.7,73.2,14.2,73.9z M4,67.5v3.8h3.7
	c0.9,0,1.6-0.2,2.1-0.5c0.5-0.3,0.7-0.8,0.7-1.4s-0.2-1.1-0.7-1.4s-1.2-0.5-2.1-0.5H4z M10.5,77.5c0.5-0.3,0.7-0.8,0.7-1.5
	c0-1.3-1-2-3-2H3.9v4h4.3C9.3,78,10,77.8,10.5,77.5z M29.6,77.8v3H17.1V64.7h12.2v3h-8.5v3.5h7.5v2.9h-7.5v3.7
	C20.8,77.8,29.6,77.8,29.6,77.8z M46.9,77.7v3H32.8v-2.3l8.8-10.6H33v-3h13.5v2.4l-8.8,10.6L46.9,77.7L46.9,77.7z M60.3,65.4
	c1.1,0.5,1.9,1.1,2.4,2s0.9,1.9,0.9,3.1s-0.3,2.2-0.9,3.1c-0.6,0.9-1.4,1.6-2.4,2c-1.1,0.5-2.3,0.7-3.7,0.7h-3.2v4.4h-3.7v-16h7
	C58,64.7,59.2,64.9,60.3,65.4z M58.9,72.6c0.6-0.5,0.9-1.2,0.9-2.1s-0.3-1.6-0.9-2.1s-1.4-0.7-2.6-0.7h-3v5.6h3
	C57.5,73.3,58.3,73.1,58.9,72.6z M78,77.8v3H65.5V64.7h12.2v3h-8.5v3.5h7.5v2.9h-7.5v3.7C69.2,77.8,78,77.8,78,77.8z M86.1,74.4
	l-2.2,2.3v4.1h-3.7V64.7h3.7v7.5l7.1-7.5h4.1l-6.7,7.2l7.1,8.9h-4.3L86.1,74.4z M109.5,77.3H102l-1.4,3.4h-3.8l7.2-16.1h3.7
	l7.2,16.1H111L109.5,77.3z M108.3,74.5l-2.6-6.2l-2.6,6.2H108.3z M176.7,67.5v3.8h3.7c0.9,0,1.6-0.2,2.1-0.5s0.7-0.8,0.7-1.4
	s-0.2-1.1-0.7-1.4s-1.2-0.5-2.1-0.5H176.7z M183.2,77.5c0.5-0.3,0.7-0.8,0.7-1.5c0-1.3-1-2-3-2h-4.3v4h4.3
	C182,78,182.7,77.8,183.2,77.5z"></path>
				<g id="loginizator-Page-1_2_">
					<path class="st22 glow" d="M114,27.9V13.4c0-0.7-0.4-1.3-1.1-1.6L94.6,5.1c-0.4-0.1-0.8-0.1-1.1,0l-18.3,6.7c-0.7,0.2-1.1,0.9-1.1,1.6
	v14.5C74,39.8,73.9,48.4,93.6,55c0.2,0.1,0.3,0.1,0.5,0.1c0.2,0,0.4,0,0.5-0.1C114.2,48.4,114.1,39.8,114,27.9"></path>


					<path id="loginizator-Fill-1_1_" class="st22 hov-white" d="M114,27.9V13.4c0-0.7-0.4-1.3-1.1-1.6L94.6,5.1c-0.4-0.1-0.8-0.1-1.1,0l-18.3,6.7
		c-0.7,0.2-1.1,0.9-1.1,1.6v14.5c-0.1,11.9-0.2,20.4,19.4,27C93.7,55,93.8,55,94,55c0.2,0,0.4,0,0.5-0.1
		C114.2,48.4,114.1,39.8,114,27.9"></path>
					<path id="loginizator-Fill-4_1_" class="st02 hov-blue" d="M98.7,33.6c-0.4,0.8-0.9,1.7-1.4,2.4c0.5,1.3,1.2,2.6,2.2,3.6c0.9,0.9,1.9,1.6,3,2.1
		c0.5-0.5,0.9-1,1.3-1.5C101,39.3,99,36.7,98.7,33.6"></path>
					<path id="loginizator-Fill-6_1_" class="st02 hov-blue" d="M102.4,32.9v-7.6c0-4.7-3.7-8.5-8.3-8.5s-8.3,3.8-8.3,8.5c0,2.1-1.7,3.8-3.7,3.8V31
		c3.1,0,5.5-2.5,5.5-5.7c0-3.7,2.9-6.6,6.5-6.6c3.6,0,6.5,3,6.5,6.6v7.6c0,2.7,1.8,5,4.3,5.5c0.3-0.6,0.5-1.2,0.7-1.8
		C103.7,36.4,102.4,34.8,102.4,32.9"></path>
					<path id="loginizator-Fill-8_1_" class="st02 hov-blue" d="M98.2,41c-0.6-0.6-1.2-1.3-1.6-2.1l-0.6-1l-0.9,0.9c-2.1,2.2-4.7,3.8-7.4,4.7
		c0.7,0.5,1.5,0.9,2.3,1.2c2.1-0.9,4-2.2,5.7-3.7c0.4,0.5,0.8,1,1.2,1.5c0.7,0.7,1.4,1.3,2.2,1.8c0.6-0.3,1.3-0.7,1.8-1.1
		C100,42.5,99,41.8,98.2,41"></path>
					<path id="loginizator-Fill-10_1_" class="st02 hov-blue" d="M94.1,13.1c-6.6,0-12,5.5-12,12.3v1.9c1,0,1.8-0.9,1.8-1.9c0-5.7,4.6-10.4,10.2-10.4
		s10.2,4.7,10.2,10.4V33c0,1,0.8,1.8,1.7,1.9c0.1-0.6,0.1-1.2,0.1-1.8v-7.6C106.1,18.6,100.7,13.1,94.1,13.1"></path>
					<path id="loginizator-Fill-12_1_" class="st02 hov-blue" d="M94.1,20.6c-2.5,0-4.6,2.1-4.6,4.7c0,4.2-3.3,7.6-7.4,7.6V33c0,0.6,0,1.2,0.1,1.8
		c2.4,0,4.7-1,6.4-2.8c1.7-1.8,2.7-4.2,2.7-6.7c0-1.6,1.2-2.8,2.8-2.8s2.8,1.3,2.8,2.8c0,7.5-5.4,13.8-12.4,15
		c0.4,0.6,0.9,1.1,1.4,1.6c3-0.7,5.7-2.3,8-4.5c3.1-3.2,4.9-7.5,4.9-12.1C98.7,22.8,96.6,20.6,94.1,20.6"></path>
					<path id="loginizator-Fill-14_1_" class="st02 hov-blue" d="M95.6,43.7c-0.1-0.1-0.1-0.1-0.2-0.2c-0.8,0.7-1.7,1.2-2.6,1.8c0.4,0,0.8,0.1,1.2,0.1
		c1,0,2-0.1,3-0.4C96.5,44.5,96.1,44.1,95.6,43.7"></path>
					<path id="loginizator-Fill-16_1_444" class="st02 hov-blue" d="M94.1,24.4c-0.5,0-0.9,0.4-0.9,0.9c0,6.1-4.7,11-10.5,11.3c0.2,0.6,0.4,1.3,0.7,1.8
		c3-0.3,5.7-1.6,7.8-3.8c2.4-2.5,3.8-5.8,3.8-9.4C95,24.8,94.6,24.4,94.1,24.4"></path>

					<path class="st12 hov-blue" d="M118,80.3c-0.4-0.4-0.6-1-0.6-1.6c0-0.7,0.2-1.2,0.6-1.6s1-0.6,1.6-0.6s1.2,0.2,1.6,0.6s0.6,0.9,0.6,1.6
	c0,0.6-0.2,1.2-0.6,1.6s-1,0.6-1.6,0.6C119,81,118.5,80.7,118,80.3z"></path>
					<path class="st12 hov-blue" d="M127.6,80c-1.3-0.7-2.4-1.7-3.1-3s-1.1-2.7-1.1-4.3c0-1.6,0.4-3,1.1-4.3c0.8-1.3,1.8-2.3,3.1-3s2.8-1.1,4.5-1.1
	c1.4,0,2.7,0.2,3.8,0.7s2.1,1.2,2.8,2.1l-2.4,2.2c-1.1-1.3-2.4-1.9-4-1.9c-1,0-1.9,0.2-2.7,0.7c-0.8,0.4-1.4,1-1.8,1.8
	c-0.4,0.8-0.7,1.7-0.7,2.7s0.2,1.9,0.7,2.7c0.4,0.8,1,1.4,1.8,1.8s1.7,0.7,2.7,0.7c1.6,0,3-0.6,4-1.9l2.4,2.2
	c-0.8,0.9-1.7,1.6-2.9,2.1s-2.4,0.7-3.8,0.7C130.4,81,129,80.7,127.6,80z"></path>
					<polygon class="st12 hov-blue" points="141.5,64.7 145.2,64.7 145.2,77.8 153.3,77.8 153.3,80.8 141.5,80.8 "></polygon>
					<path class="st12 hov-blue" d="M157.3,79.1c-1.3-1.3-1.9-3.1-1.9-5.5v-9h3.7v8.9c0,2.9,1.2,4.3,3.6,4.3c1.2,0,2.1-0.3,2.7-1
	c0.6-0.7,0.9-1.8,0.9-3.3v-8.9h3.7v9c0,2.4-0.6,4.2-1.9,5.5c-1.3,1.3-3.1,1.9-5.4,1.9C160.4,81,158.6,80.4,157.3,79.1z"></path>
					<path class="st12 hov-blue" d="M186.9,73.9c0.5,0.7,0.8,1.5,0.8,2.5c0,1.4-0.5,2.5-1.6,3.3s-2.7,1.1-4.8,1.1H173V64.7h7.9c2,0,3.5,0.4,4.5,1.1
	s1.6,1.8,1.6,3.1c0,0.8-0.2,1.5-0.6,2.1s-0.9,1.1-1.6,1.4C185.7,72.7,186.4,73.2,186.9,73.9z"></path>
					<path class="st02 " d="M176.7,67.5v3.8h3.7c0.9,0,1.6-0.2,2.1-0.5s0.7-0.8,0.7-1.4s-0.2-1.1-0.7-1.4s-1.2-0.5-2.1-0.5H176.7z"></path>
					<path class="st02 " d="M183.2,77.5c0.5-0.3,0.7-0.8,0.7-1.5c0-1.3-1-2-3-2h-4.3v4h4.3C182,78,182.7,77.8,183.2,77.5z"></path>

				</g>
</svg>