<svg 
 xmlns="http://www.w3.org/2000/svg"
 xmlns:xlink="http://www.w3.org/1999/xlink"
 width="24px" height="22px">
<defs>
<linearGradient id="PSgrad_0" x1="95.63%" x2="0%" y1="0%" y2="29.237%">
  <stop offset="0%" stop-color="rgb(181,205,255)" stop-opacity="1" />
  <stop offset="100%" stop-color="rgb(181,205,255)" stop-opacity="0" />
</linearGradient>

</defs>
<path fill-rule="evenodd"  fill="rgb(250, 250, 250)"
 d="M15.510,12.734 C16.593,11.690 17.268,10.228 17.268,8.608 L17.268,5.738 C17.268,2.569 14.691,-0.002 11.512,-0.002 C8.333,-0.002 5.756,2.569 5.756,5.738 L5.756,8.608 C5.756,10.227 6.430,11.689 7.513,12.734 C3.127,13.414 -0.000,15.181 -0.000,17.239 L-0.000,19.129 C-0.000,20.714 1.288,21.999 2.878,21.999 L20.146,21.999 C21.736,21.999 23.024,20.714 23.024,19.129 L23.024,17.246 C23.024,15.188 19.897,13.416 15.510,12.734 ZM7.674,8.608 L7.674,5.738 C7.674,3.625 9.393,1.911 11.512,1.911 C13.631,1.911 15.349,3.625 15.349,5.738 L15.349,8.608 C15.349,10.720 13.631,12.433 11.512,12.433 C9.393,12.433 7.674,10.720 7.674,8.608 ZM21.105,19.129 C21.105,19.656 20.675,20.085 20.146,20.085 L2.878,20.085 C2.349,20.085 1.918,19.656 1.918,19.129 L1.918,17.239 C1.918,17.016 2.471,16.296 4.114,15.609 C6.033,14.807 8.730,14.346 11.512,14.346 C14.292,14.346 16.988,14.808 18.909,15.612 C20.552,16.301 21.105,17.022 21.105,17.246 L21.105,19.129 Z"/>
<path fill="url(#PSgrad_0)"
 d="M15.510,12.734 C16.593,11.690 17.268,10.228 17.268,8.608 L17.268,5.738 C17.268,2.569 14.691,-0.002 11.512,-0.002 C8.333,-0.002 5.756,2.569 5.756,5.738 L5.756,8.608 C5.756,10.227 6.430,11.689 7.513,12.734 C3.127,13.414 -0.000,15.181 -0.000,17.239 L-0.000,19.129 C-0.000,20.714 1.288,21.999 2.878,21.999 L20.146,21.999 C21.736,21.999 23.024,20.714 23.024,19.129 L23.024,17.246 C23.024,15.188 19.897,13.416 15.510,12.734 ZM7.674,8.608 L7.674,5.738 C7.674,3.625 9.393,1.911 11.512,1.911 C13.631,1.911 15.349,3.625 15.349,5.738 L15.349,8.608 C15.349,10.720 13.631,12.433 11.512,12.433 C9.393,12.433 7.674,10.720 7.674,8.608 ZM21.105,19.129 C21.105,19.656 20.675,20.085 20.146,20.085 L2.878,20.085 C2.349,20.085 1.918,19.656 1.918,19.129 L1.918,17.239 C1.918,17.016 2.471,16.296 4.114,15.609 C6.033,14.807 8.730,14.346 11.512,14.346 C14.292,14.346 16.988,14.808 18.909,15.612 C20.552,16.301 21.105,17.022 21.105,17.246 L21.105,19.129 Z"/>
</svg>