<svg 
 xmlns="http://www.w3.org/2000/svg"
 xmlns:xlink="http://www.w3.org/1999/xlink"
 width="18px" height="27px">
<path fill-rule="evenodd"  fill="rgb(255, 255, 255)"
 d="M12.500,26.999 L5.500,26.999 C2.468,26.999 -0.000,24.755 -0.000,21.998 L-0.000,4.999 C-0.000,2.243 2.468,-0.002 5.500,-0.002 L12.500,-0.002 C15.531,-0.002 18.000,2.243 18.000,4.999 L18.000,21.998 C18.000,24.755 15.531,26.999 12.500,26.999 ZM15.800,4.999 C15.800,3.345 14.319,1.999 12.500,1.999 L5.500,1.999 C3.680,1.999 2.200,3.345 2.200,4.999 L2.200,16.999 L15.800,16.999 L15.800,4.999 ZM15.800,18.998 L2.200,18.998 L2.200,21.998 C2.200,23.652 3.680,24.999 5.500,24.999 L12.500,24.999 C14.319,24.999 15.800,23.652 15.800,21.998 L15.800,18.998 ZM9.000,22.999 C7.785,22.999 7.900,23.103 7.900,21.998 C7.900,20.894 7.785,20.999 9.000,20.999 C10.214,20.999 10.100,20.894 10.100,21.998 C10.100,23.103 10.214,22.999 9.000,22.999 ZM11.200,5.998 L6.800,5.998 L6.800,3.999 L11.200,3.999 L11.200,5.998 Z"/>
</svg>