<svg 
 xmlns="http://www.w3.org/2000/svg"
 xmlns:xlink="http://www.w3.org/1999/xlink"
 width="15px" height="15px">
<path fill-rule="evenodd"  fill="rgb(255, 255, 255)"
 d="M14.115,7.697 C14.115,7.697 14.115,7.697 14.115,7.697 C13.630,7.697 13.237,7.315 13.237,6.845 C13.238,5.473 12.687,4.183 11.686,3.214 C10.685,2.244 9.355,1.709 7.941,1.709 C7.940,1.709 7.940,1.709 7.940,1.709 C7.455,1.709 7.062,1.328 7.062,0.858 C7.062,0.387 7.455,0.006 7.940,0.006 C7.940,0.006 7.940,0.006 7.941,0.006 C9.825,0.006 11.596,0.718 12.928,2.009 C14.260,3.301 14.994,5.019 14.994,6.846 C14.994,7.316 14.600,7.697 14.115,7.697 ZM10.150,6.845 C10.150,5.664 9.158,4.703 7.940,4.703 C7.455,4.703 7.062,4.322 7.062,3.852 C7.062,3.381 7.455,3.000 7.940,3.000 L7.940,3.000 C10.127,3.001 11.906,4.725 11.906,6.845 C11.906,7.315 11.513,7.697 11.028,7.697 C10.543,7.697 10.150,7.315 10.150,6.845 ZM5.708,9.805 C7.063,11.027 8.172,11.430 8.569,11.600 C8.864,11.726 9.220,11.704 9.442,11.482 C9.723,11.197 10.074,10.722 10.430,10.254 C10.684,9.918 10.996,9.882 11.321,10.009 C11.652,10.127 13.399,11.011 13.758,11.193 C14.117,11.377 14.354,11.466 14.439,11.617 C14.523,11.768 14.509,12.467 14.196,13.283 C13.882,14.098 12.687,14.757 11.740,14.938 C11.093,15.060 10.248,15.151 7.435,13.952 C3.836,12.419 1.571,8.780 1.393,8.544 C1.223,8.307 -0.036,6.613 -0.002,4.885 C0.032,3.157 0.947,2.333 1.317,1.978 C1.621,1.687 2.115,1.561 2.587,1.570 C2.740,1.572 2.877,1.582 3.001,1.591 C3.363,1.613 3.545,1.637 3.773,2.200 C4.057,2.905 4.748,4.646 4.831,4.826 C4.916,5.004 4.999,5.247 4.871,5.478 C4.751,5.716 4.647,5.822 4.461,6.023 C4.275,6.224 4.099,6.378 3.913,6.594 C3.742,6.782 3.550,6.983 3.753,7.341 C3.956,7.691 4.659,8.858 5.708,9.805 Z"/>
</svg>