<svg 
 xmlns="http://www.w3.org/2000/svg"
 xmlns:xlink="http://www.w3.org/1999/xlink"
 width="19px" height="25px">
<defs>
<linearGradient id="PSgrad_0" x1="95.63%" x2="0%" y1="0%" y2="29.237%">
  <stop offset="0%" stop-color="rgb(181,205,255)" stop-opacity="1" />
  <stop offset="100%" stop-color="rgb(181,205,255)" stop-opacity="0" />
</linearGradient>

</defs>
<path fill-rule="evenodd"  fill="rgb(250, 250, 250)"
 d="M13.733,24.999 L5.266,24.999 C2.362,24.999 -0.000,22.696 -0.000,19.866 L-0.000,5.132 C-0.000,2.301 2.362,-0.002 5.266,-0.002 L13.734,-0.002 C16.637,-0.002 19.000,2.301 19.000,5.132 L19.000,19.866 C19.000,22.696 16.637,24.999 13.733,24.999 ZM11.613,2.326 L7.386,2.326 L7.386,3.599 C7.386,3.687 7.460,3.760 7.552,3.760 L11.448,3.760 C11.539,3.760 11.613,3.687 11.613,3.599 L11.613,2.326 ZM16.612,5.132 C16.612,3.674 15.461,2.486 14.001,2.353 L14.001,3.599 C14.001,4.971 12.856,6.088 11.448,6.088 L7.552,6.088 C6.144,6.088 4.998,4.971 4.998,3.599 L4.998,2.353 C3.538,2.486 2.388,3.674 2.388,5.132 L2.388,19.866 C2.388,21.413 3.679,22.671 5.266,22.671 L13.733,22.671 C15.320,22.671 16.612,21.413 16.612,19.866 L16.612,5.132 ZM7.600,16.256 L11.400,16.256 L11.400,18.760 L7.600,18.760 L7.600,16.256 Z"/>
<path fill="url(#PSgrad_0)"
 d="M13.733,24.999 L5.266,24.999 C2.362,24.999 -0.000,22.696 -0.000,19.866 L-0.000,5.132 C-0.000,2.301 2.362,-0.002 5.266,-0.002 L13.734,-0.002 C16.637,-0.002 19.000,2.301 19.000,5.132 L19.000,19.866 C19.000,22.696 16.637,24.999 13.733,24.999 ZM11.613,2.326 L7.386,2.326 L7.386,3.599 C7.386,3.687 7.460,3.760 7.552,3.760 L11.448,3.760 C11.539,3.760 11.613,3.687 11.613,3.599 L11.613,2.326 ZM16.612,5.132 C16.612,3.674 15.461,2.486 14.001,2.353 L14.001,3.599 C14.001,4.971 12.856,6.088 11.448,6.088 L7.552,6.088 C6.144,6.088 4.998,4.971 4.998,3.599 L4.998,2.353 C3.538,2.486 2.388,3.674 2.388,5.132 L2.388,19.866 C2.388,21.413 3.679,22.671 5.266,22.671 L13.733,22.671 C15.320,22.671 16.612,21.413 16.612,19.866 L16.612,5.132 ZM7.600,16.256 L11.400,16.256 L11.400,18.760 L7.600,18.760 L7.600,16.256 Z"/>
</svg>